# xmcd
#
# Track frame offsets: 
#        150
#        16990
#        29763
#        43072
#        57570
#        67681
#        79666
#        88569
#        97041
#        105826
#        118445
#        129738
#        137149
#        146103
#        153424
#        166549
#        175699
#        186132
#        195619
#        208478
#        220146
#        229389
#        240994
#        252217
#        260214
#        271140
#        281010
#        295150
#        304516
#        311401
#        319823
#
# Disc length: 4447 seconds
#
# Revision: 0
# Processed by: cddbd v1.5.2PL0 Copyright (c) Steve Scherf et al.
# Submitted via: ExactAudioCopy v0.99pb4
#
DISCID=ca115d1f
DTITLE=Various Artist - El Toro Music - the retro sounds you need
DYEAR=2009
DGENRE=Rock and Roll
TTITLE0=Cry Baby Boogie - The Lazy Jumpers
TTITLE1=Hand Shake Blues - The Lazy Jumpers
TTITLE2=Bartender Baby - Little Rachel
TTITLE3=Take This Love and Bury it - Little Rachel
TTITLE4=Searchin' - The Hometown Gamblers
TTITLE5=Guitars in Orbit - Los Twang Marvels
TTITLE6=Rancho Cucamonga - Los Twang Marvels
TTITLE7=Motorhythm - Long Boards
TTITLE8=Going Nowhere - Long Boards
TTITLE9=Vibrant - The Vibrants
TTITLE10=Cuatrero - The Vibrants
TTITLE11=El Superespia Juan- Da Surfones
TTITLE12=Caballeros - The Hometown Gamblers
TTITLE13=Que Lastima - Rocky Burnette
TTITLE14=DOM - The Nu Niles
TTITLE15=Blazin'a Champagne Trail - Caroline Casey
TTITLE16=This Broken Crown - Caroline Casey
TTITLE17=Fooling Around - The Hometown Gamblers
TTITLE18=Long Gone Train - The Starlighters
TTITLE19=City Lights - Mr. Whiz
TTITLE20=Let's Get On With It - Arsen Roulette
TTITLE21=Call Shout Scream - Adam and His Nuclear Rockets
TTITLE22=Feet of Clay - Joe Clay
TTITLE23=I Don't Wanna Fly Back Home - The Starlighters
TTITLE24=Riding on a Rocket - Rocky Burnette
TTITLE25=Panick Attack - Little Rachel
TTITLE26=El Crujir de tus Rodillas - The Nu Niles
TTITLE27=Single Man - The Nu Niles
TTITLE28=Verge of Tears - The Nu Niles
TTITLE29=Rocket Man - Brioles
TTITLE30=Come on Stroll - The Starliters
EXTD=
EXTT0=
EXTT1=
EXTT2=
EXTT3=
EXTT4=
EXTT5=
EXTT6=
EXTT7=
EXTT8=
EXTT9=
EXTT10=
EXTT11=
EXTT12=
EXTT13=
EXTT14=
EXTT15=
EXTT16=
EXTT17=
EXTT18=
EXTT19=
EXTT20=
EXTT21=
EXTT22=
EXTT23=
EXTT24=
EXTT25=
EXTT26=
EXTT27=
EXTT28=
EXTT29=
EXTT30=
PLAYORDER=
